<svg width="38" height="55" viewBox="0 0 38 55" fill="none" xmlns="http://www.w3.org/2000/svg">
<path d="M30.5024 18.1445C24.4737 10.8218 21.8086 4.5939 20.2823 0.878019C19.799 -0.292673 18.1962 -0.292673 17.7177 0.878019C16.1914 4.5939 13.5263 10.8218 7.49761 18.1445C3.72249 22.7325 0 29.4486 0 36.0651C0 47.355 8.22488 55 19 55C29.7751 55 38 47.3502 38 36.0651C38 29.1879 34.2775 22.7325 30.5024 18.1445Z" fill="#E22030"/>
<path d="M13.4359 36.728H8.77987L7.97987 39H6.07587L10.0599 27.864H12.1719L16.1559 39H14.2359L13.4359 36.728ZM12.9239 35.24L11.1159 30.072L9.29187 35.24H12.9239ZM22.4801 33.288C23.0775 33.3947 23.5841 33.7093 24.0001 34.232C24.4161 34.7547 24.6241 35.3467 24.6241 36.008C24.6241 36.5733 24.4748 37.0853 24.1761 37.544C23.8881 37.992 23.4668 38.3493 22.9121 38.616C22.3575 38.872 21.7121 39 20.9761 39H16.5281V27.88H20.7681C21.5255 27.88 22.1761 28.008 22.7201 28.264C23.2641 28.52 23.6748 28.8667 23.9521 29.304C24.2295 29.7307 24.3681 30.2107 24.3681 30.744C24.3681 31.384 24.1975 31.9173 23.8561 32.344C23.5148 32.7707 23.0561 33.0853 22.4801 33.288ZM18.3521 32.552H20.6081C21.2055 32.552 21.6695 32.4187 22.0001 32.152C22.3415 31.8747 22.5121 31.48 22.5121 30.968C22.5121 30.4667 22.3415 30.0773 22.0001 29.8C21.6695 29.512 21.2055 29.368 20.6081 29.368H18.3521V32.552ZM20.8161 37.512C21.4348 37.512 21.9201 37.3627 22.2721 37.064C22.6241 36.7653 22.8001 36.3493 22.8001 35.816C22.8001 35.272 22.6135 34.84 22.2401 34.52C21.8668 34.2 21.3708 34.04 20.7521 34.04H18.3521V37.512H20.8161ZM33.8383 33.992H30.6062V37.304H28.9102V33.992H25.6782V32.456H28.9102V29.144H30.6062V32.456H33.8383V33.992Z" fill="white"/>
</svg>
