<svg width="24" height="24" viewBox="0 0 24 24" fill="none" xmlns="http://www.w3.org/2000/svg">
<path d="M12 1.16032C7.73726 1.1025 3.62993 3.84591 2.01301 7.78366C0.324126 11.6526 1.20165 16.4589 4.15592 19.4763C6.9973 22.5348 11.6788 23.6574 15.5995 22.2263C19.6629 20.8427 22.6627 16.8522 22.8258 12.5573C23.0993 8.33702 20.6163 4.12658 16.8146 2.28825C15.3259 1.54535 13.6635 1.15794 12 1.16032ZM12 2.3322C16.2104 2.25897 20.2147 5.2834 21.3018 9.35091C22.4388 13.1819 20.9008 17.6174 17.5997 19.8863C14.1707 22.4068 9.08558 22.2244 5.84742 19.4627C2.58475 16.8613 1.41688 12.0497 3.09084 8.23397C4.54172 4.70647 8.18368 2.28742 12 2.3322ZM7.08255 8.24959V15.7507H16.9175V8.24958H7.08255V8.24959ZM9.26733 9.42151H14.7319C13.764 10.0171 12.796 11.3246 11.8282 11.4673C10.9746 10.7853 10.121 10.1034 9.26731 9.42151H9.26733ZM15.7471 10.1114V14.5788H8.25301V10.1118C9.50164 11.1097 10.7502 12.1076 11.9989 13.1054C13.2484 12.1075 14.4977 11.1094 15.7471 10.1114Z" fill="#E22030"/>
</svg>
