<svg width="24" height="24" viewBox="0 0 24 24" fill="none" xmlns="http://www.w3.org/2000/svg">
<path d="M16.9266 16.9666C16.7788 16.8708 16.5991 16.8373 16.4267 16.8735C16.2543 16.9098 16.1033 17.0127 16.0066 17.16C15.0666 18.6 13.3399 20.3666 11.7999 20.96C10.2599 21.5533 9.05328 21.34 8.57328 20.96C8.36661 20.78 7.82661 20.2933 8.28661 18.6333C8.59328 17.5266 10.4999 12.3133 10.9533 11.0466L9.49994 11.2333C9.03994 12.4733 7.30661 17.1266 6.99328 18.2866C6.53994 19.9466 6.76661 21.1533 7.71994 21.9933C8.38605 22.4606 9.18682 22.6971 9.99994 22.6666C10.7889 22.6553 11.5689 22.497 12.2999 22.2C14.1599 21.4733 16.1133 19.4533 17.1399 17.8866C17.1865 17.8123 17.2179 17.7294 17.2324 17.6429C17.2468 17.5564 17.2441 17.4678 17.2243 17.3823C17.2045 17.2969 17.168 17.2162 17.1169 17.1448C17.0658 17.0735 17.0011 17.0129 16.9266 16.9666Z" fill="#E22030"/>
<path d="M12.8667 7.33325C13.46 7.33325 14.0401 7.15731 14.5334 6.82766C15.0268 6.49802 15.4113 6.02948 15.6383 5.4813C15.8654 4.93313 15.9248 4.32993 15.8091 3.74798C15.6933 3.16604 15.4076 2.63149 14.988 2.21193C14.5685 1.79238 14.0339 1.50665 13.452 1.3909C12.87 1.27514 12.2668 1.33455 11.7186 1.56161C11.1705 1.78868 10.7019 2.1732 10.3723 2.66654C10.0426 3.15989 9.8667 3.73991 9.8667 4.33325C9.8667 5.1289 10.1828 5.89196 10.7454 6.45457C11.308 7.01718 12.071 7.33325 12.8667 7.33325ZM12.8667 2.66659C13.1963 2.66659 13.5186 2.76433 13.7926 2.94747C14.0667 3.13061 14.2803 3.3909 14.4065 3.69545C14.5326 3.99999 14.5656 4.3351 14.5013 4.6584C14.437 4.98171 14.2783 5.27868 14.0452 5.51176C13.8121 5.74485 13.5151 5.90359 13.1918 5.9679C12.8685 6.0322 12.5334 5.9992 12.2289 5.87305C11.9243 5.74691 11.6641 5.53329 11.4809 5.2592C11.2978 4.98512 11.2 4.66289 11.2 4.33325C11.2 3.89123 11.3756 3.4673 11.6882 3.15474C12.0007 2.84218 12.4247 2.66659 12.8667 2.66659Z" fill="#E22030"/>
<path d="M7.87337 10.0001C7.91337 10.0001 12.0534 9.45342 13.0267 9.33342C13.46 9.26675 13.7867 9.33342 13.8934 9.43342C14 9.53342 14.0334 9.96675 13.8467 10.5534C13.44 11.7934 11.3867 17.8868 10.7867 19.6934C11.08 19.6333 11.3677 19.5485 11.6467 19.4401C11.9136 19.3297 12.1702 19.1958 12.4134 19.0401C13.2334 16.6667 14.7667 12.0668 15.1134 11.0134C15.46 9.96009 15.3734 9.16009 14.9134 8.61342C14.651 8.34735 14.3225 8.15588 13.9616 8.05865C13.6008 7.96141 13.2206 7.96191 12.86 8.06009C11.9067 8.16009 7.88004 8.68675 7.70671 8.72675C7.5299 8.74974 7.36946 8.84202 7.26069 8.9833C7.15191 9.12457 7.10372 9.30327 7.12671 9.48009C7.14969 9.6569 7.24197 9.81733 7.38325 9.92611C7.52453 10.0349 7.70323 10.0831 7.88004 10.0601L7.87337 10.0001Z" fill="#E22030"/>
</svg>
