<svg width="23" height="23" viewBox="0 0 23 23" fill="none" xmlns="http://www.w3.org/2000/svg">
<path d="M4.5 5.79997C4.5 4.42085 5.04786 3.09821 6.02304 2.12302C6.99823 1.14783 8.32087 0.599976 9.7 0.599976C11.0791 0.599976 12.4018 1.14783 13.377 2.12302C14.3521 3.09821 14.9 4.42085 14.9 5.79997C14.9 7.1791 14.3521 8.50174 13.377 9.47693C12.4018 10.4521 11.0791 11 9.7 11C8.32087 11 6.99823 10.4521 6.02304 9.47693C5.04786 8.50174 4.5 7.1791 4.5 5.79997ZM9.7 1.89998C8.66566 1.89998 7.67368 2.31087 6.94228 3.04226C6.21089 3.77365 5.8 4.76563 5.8 5.79997C5.8 6.83432 6.21089 7.8263 6.94228 8.55769C7.67368 9.28908 8.66566 9.69997 9.7 9.69997C10.7343 9.69997 11.7263 9.28908 12.4577 8.55769C13.1891 7.8263 13.6 6.83432 13.6 5.79997C13.6 4.76563 13.1891 3.77365 12.4577 3.04226C11.7263 2.31087 10.7343 1.89998 9.7 1.89998Z" fill="white"/>
<path d="M0.600098 14.8999C0.600098 13.453 1.774 12.2999 3.2118 12.2999H16.2001C16.5771 12.2999 16.9346 12.3805 17.257 12.5235C17.1114 13.0981 17.1582 13.7065 17.387 14.2499H17.3259C17.2118 14.0523 17.0477 13.8882 16.8501 13.7741C16.6525 13.66 16.4283 13.5999 16.2001 13.5999H3.2118C2.4825 13.5999 1.9001 14.181 1.9001 14.8999C1.9001 16.6016 2.7087 17.8691 4.075 18.7388C5.466 19.6267 7.4446 20.0999 9.7001 20.0999C10.9507 20.0999 12.1155 19.9543 13.1425 19.6735C12.9683 20.112 12.9109 20.5882 12.9761 21.0554C11.9504 21.2868 10.8441 21.3999 9.7001 21.3999C7.2886 21.3999 5.0422 20.8981 3.3756 19.836C1.683 18.757 0.600098 17.0969 0.600098 14.8999Z" fill="white"/>
<path d="M18.5855 12.6445L19.1042 11.4212C19.3473 10.8466 19.9297 10.5346 20.5017 10.6542L20.6239 10.6854L21.2739 10.8934C21.9187 11.1001 22.4114 11.6513 22.5713 12.3442C22.9496 13.9913 22.4959 15.9972 21.2076 18.3606C19.9219 20.7214 18.514 22.1397 16.9813 22.6181C16.3859 22.804 15.7463 22.6701 15.2653 22.2658L15.1392 22.1488L14.6452 21.6535C14.4377 21.4399 14.3036 21.1657 14.2625 20.8707C14.2213 20.5757 14.2752 20.2752 14.4164 20.0129L14.4892 19.8933L15.2328 18.8013C15.368 18.5952 15.5619 18.4343 15.7895 18.3396C16.0171 18.2448 16.2678 18.2204 16.5094 18.2696L16.6394 18.3047L18.0135 18.7636C18.5608 18.3476 19.0184 17.8276 19.3837 17.1971C19.697 16.6576 19.9037 16.1116 19.9986 15.5578L20.0376 15.2796L18.8949 14.1941C18.7105 14.0144 18.5793 13.7872 18.516 13.5375C18.4527 13.2879 18.4596 13.0256 18.5361 12.7797L18.5842 12.6445H18.5855Z" fill="white"/>
</svg>
