<svg width="21" height="27" viewBox="0 0 21 27" fill="none" xmlns="http://www.w3.org/2000/svg">
<path d="M10.0161 1.37057C9.1547 3.27601 7.68218 6.19833 4.70185 9.56946C2.77477 11.7504 1 14.8166 1 17.7047C1 22.6072 4.79641 26 10.0161 26C15.2357 26 19.0323 22.605 19.0323 17.7047C19.0323 14.6932 17.2626 11.7562 15.3306 9.56967L10.0161 1.37057ZM10.0161 1.37057C10.8776 3.27601 12.3501 6.19833 15.3304 9.56946L10.0161 1.37057Z" stroke="#E22030" stroke-width="2"/>
<path d="M10.9579 18.6225L10.9579 18.6224C11.5005 17.6951 11.7816 16.769 11.9871 16.0921C12.0228 15.9747 12.0561 15.8648 12.0882 15.7636C12.1973 15.4195 12.2755 15.2321 12.3404 15.1389C12.8091 15.3248 13.4074 15.9451 13.8305 16.8682C14.2474 17.7779 14.4424 18.8756 14.2052 19.8962C14.0347 20.6285 13.6852 21.1699 13.2535 21.4781C12.834 21.7776 12.2945 21.8892 11.6474 21.694L11.6472 21.694C11.1686 21.5497 10.7772 21.1821 10.6074 20.6656C10.439 20.1532 10.4758 19.4465 10.9579 18.6225Z" stroke="#E22030"/>
</svg>
