<svg width="43" height="43" viewBox="0 0 43 43" fill="none" xmlns="http://www.w3.org/2000/svg">
<path d="M18.5681 5.375C15.9588 5.375 13.408 6.14876 11.2384 7.59844C9.06882 9.04812 7.37783 11.1086 6.37927 13.5193C5.38072 15.9301 5.11945 18.5827 5.62851 21.142C6.13757 23.7012 7.39409 26.052 9.23918 27.897C11.0843 29.7421 13.4351 30.9987 15.9943 31.5077C18.5535 32.0168 21.2062 31.7555 23.6169 30.757C26.0276 29.7584 28.0881 28.0674 29.5378 25.8978C30.9875 23.7282 31.7612 21.1775 31.7612 18.5681C31.761 15.0691 30.3709 11.7136 27.8968 9.23942C25.4227 6.76528 22.0671 5.37522 18.5681 5.375V5.375Z" stroke="#E22030" stroke-width="2.5" stroke-miterlimit="10"/>
<path d="M28.4111 28.411L37.6251 37.6249" stroke="#E22030" stroke-width="2.5" stroke-miterlimit="10" stroke-linecap="round"/>
<path d="M18.5 10.5833C16.3174 10.5833 14.5417 12.359 14.5417 14.5416C14.5417 16.7243 16.3174 18.5 18.5 18.5C20.6826 18.5 22.4583 16.7243 22.4583 14.5416C22.4583 12.359 20.6826 10.5833 18.5 10.5833ZM18.5 16.9166C17.1906 16.9166 16.125 15.8511 16.125 14.5416C16.125 13.2322 17.1906 12.1666 18.5 12.1666C19.8094 12.1666 20.875 13.2322 20.875 14.5416C20.875 15.8511 19.8094 16.9166 18.5 16.9166ZM25.625 25.625V24.8333C25.625 21.7783 23.1384 19.2916 20.0833 19.2916H16.9167C13.8608 19.2916 11.375 21.7783 11.375 24.8333V25.625H12.9583V24.8333C12.9583 22.6507 14.734 20.875 16.9167 20.875H20.0833C22.266 20.875 24.0417 22.6507 24.0417 24.8333V25.625H25.625Z" fill="#E22030"/>
</svg>
