<svg width="24" height="24" viewBox="0 0 24 24" fill="none" xmlns="http://www.w3.org/2000/svg">
<path d="M12 3C7.03725 3 3 7.03725 3 12C3 16.9628 7.03725 21 12 21C15.0375 21 17.73 19.491 19.3597 17.1795L18.141 16.3125C17.4492 17.2985 16.5297 18.1031 15.4607 18.658C14.3916 19.2129 13.2045 19.5017 12 19.5C7.84875 19.5 4.5 16.1512 4.5 12C4.5 7.84875 7.84875 4.5 12 4.5C13.2044 4.4986 14.3915 4.78757 15.4605 5.34245C16.5295 5.89732 17.449 6.70173 18.141 7.6875L19.3597 6.8205C18.5298 5.63967 17.4277 4.67602 16.1467 4.01104C14.8656 3.34605 13.4433 2.99926 12 3ZM17.508 8.46075L16.4295 9.53925L18.141 11.25H9V12.75H18.141L16.4295 14.4608L17.508 15.5393L20.508 12.5393L21.0225 12L20.5072 11.4608L17.508 8.46075Z" fill="#E22030"/>
</svg>
