<?xml version="1.0" encoding="UTF-8"?>
<svg xmlns="http://www.w3.org/2000/svg" xmlns:xlink="http://www.w3.org/1999/xlink" width="43px" height="43px" viewBox="0 0 43 43" version="1.1">
<g id="surface1">
<path style=" stroke:none;fill-rule:nonzero;fill:rgb(81.568627%,81.176471%,80.784314%);fill-opacity:1;" d="M 14.097656 26.292969 L 19.6875 26.292969 L 19.6875 29.144531 L 14.097656 29.144531 Z M 14.097656 26.292969 "/>
<path style=" stroke:none;fill-rule:nonzero;fill:rgb(100%,12.941176%,33.72549%);fill-opacity:1;" d="M 9.554688 11.53125 L 24.484375 11.53125 L 24.484375 18.992188 C 24.484375 21.28125 22.980469 23.132812 21.125 23.132812 L 20.308594 23.132812 C 18.4375 23.472656 18.515625 26.292969 18.515625 26.292969 L 15.136719 26.292969 C 15.136719 26.292969 15.214844 23.472656 13.34375 23.132812 L 12.917969 23.132812 C 11.0625 23.132812 9.554688 21.28125 9.554688 18.992188 Z M 9.554688 11.53125 "/>
<path style=" stroke:none;fill-rule:nonzero;fill:rgb(100%,0%,23.921569%);fill-opacity:1;" d="M 30.507812 12.253906 L 31.355469 12.253906 C 31.984375 12.253906 32.492188 12.761719 32.492188 13.390625 L 32.492188 18.03125 C 32.492188 18.65625 31.984375 19.164062 31.355469 19.164062 L 30.507812 19.164062 C 30.359375 19.164062 30.210938 19.136719 30.074219 19.078125 C 29.9375 19.023438 29.8125 18.9375 29.707031 18.832031 C 29.601562 18.726562 29.515625 18.601562 29.460938 18.464844 C 29.402344 18.328125 29.375 18.179688 29.375 18.03125 L 29.375 13.390625 C 29.375 12.761719 29.882812 12.253906 30.507812 12.253906 Z M 30.507812 12.253906 "/>
<path style=" stroke:none;fill-rule:nonzero;fill:rgb(100%,12.941176%,33.72549%);fill-opacity:1;" d="M 19.117188 18.414062 C 19.132812 18.703125 19.089844 18.988281 18.992188 19.257812 C 18.894531 19.527344 18.746094 19.773438 18.546875 19.980469 C 18.351562 20.1875 18.113281 20.355469 17.851562 20.46875 C 17.589844 20.582031 17.304688 20.640625 17.019531 20.640625 C 16.734375 20.640625 16.449219 20.582031 16.1875 20.46875 C 15.925781 20.355469 15.6875 20.1875 15.492188 19.980469 C 15.296875 19.769531 15.144531 19.523438 15.046875 19.253906 C 14.949219 18.984375 14.910156 18.699219 14.925781 18.414062 C 14.925781 18.414062 14.902344 16.914062 16.671875 14.207031 C 16.671875 14.207031 17.003906 13.644531 17.335938 14.167969 C 19.101562 16.878906 19.117188 18.414062 19.117188 18.414062 Z M 19.117188 18.414062 "/>
<path style=" stroke:none;fill-rule:nonzero;fill:rgb(100%,12.941176%,33.72549%);fill-opacity:1;" d="M 17.019531 13.945312 C 18.367188 15.03125 19.101562 18.226562 19.101562 18.226562 C 19.101562 19.796875 18.175781 20.644531 17.019531 20.644531 C 17.019531 20.644531 19.324219 18.75 17.019531 13.945312 Z M 17.019531 13.945312 "/>
<path style="fill:none;stroke-width:0.5;stroke-linecap:round;stroke-linejoin:round;stroke:rgb(97.647059%,7.843137%,29.019608%);stroke-opacity:1;stroke-miterlimit:4;" d="M 20.430596 36.085392 L 20.430596 38.929142 C 20.425872 40.166788 20.855741 41.366642 21.649346 42.316134 C 22.438227 43.270349 23.538881 43.912791 24.757631 44.134811 C 26.604651 44.507994 28.517805 44.408794 30.317587 43.841933 C 31.489099 43.440407 32.471657 42.627907 33.095203 41.56032 C 33.71875 40.492733 33.94077 39.236192 33.714026 38.022166 C 33.619549 37.511991 33.562863 36.992369 33.553416 36.472747 C 33.55814 35.513808 33.765988 34.564317 34.162791 33.685683 C 34.559593 32.811773 35.135901 32.027616 35.853924 31.389898 C 37.285247 30.043605 38.900799 28.111555 37.327762 23.175145 " transform="matrix(0.826923,0,0,0.826923,0,0)"/>
<path style="fill:none;stroke-width:0.5;stroke-linecap:round;stroke-linejoin:round;stroke:rgb(77.254902%,77.254902%,77.254902%);stroke-opacity:1;stroke-miterlimit:4;" d="M 11.554506 13.944767 L 11.554506 12.692951 C 11.554506 11.611192 11.984375 10.576672 12.744913 9.816134 C 13.510174 9.050872 14.544695 8.625727 15.62173 8.625727 L 25.546512 8.625727 C 26.623547 8.625727 27.658067 9.050872 28.418605 9.816134 C 29.183866 10.576672 29.613735 11.611192 29.613735 12.688227 L 29.613735 13.97311 " transform="matrix(0.826923,0,0,0.826923,0,0)"/>
<path style="fill:none;stroke-width:0.5;stroke-linecap:round;stroke-linejoin:round;stroke:rgb(67.058824%,67.058824%,67.058824%);stroke-opacity:1;stroke-miterlimit:4;" d="M 17.048328 31.796148 L 23.80814 31.796148 L 23.80814 35.244549 L 17.048328 35.244549 Z M 17.048328 31.796148 " transform="matrix(0.826923,0,0,0.826923,0,0)"/>
<path style="fill:none;stroke-width:0.5;stroke-linecap:round;stroke-linejoin:round;stroke:rgb(88.627451%,12.54902%,18.823529%);stroke-opacity:1;stroke-miterlimit:4;" d="M 36.893169 14.818677 L 37.918241 14.818677 C 38.678779 14.818677 39.292878 15.432776 39.292878 16.193314 L 39.292878 21.805233 C 39.292878 22.561047 38.678779 23.175145 37.918241 23.175145 L 36.893169 23.175145 C 36.713663 23.175145 36.534157 23.142078 36.368823 23.071221 C 36.203488 23.005087 36.052326 22.901163 35.924782 22.773619 C 35.797238 22.646076 35.693314 22.494913 35.62718 22.329578 C 35.556323 22.164244 35.523256 21.984738 35.523256 21.805233 L 35.523256 16.193314 C 35.523256 15.432776 36.137355 14.818677 36.893169 14.818677 Z M 36.893169 14.818677 " transform="matrix(0.826923,0,0,0.826923,0,0)"/>
<path style="fill:none;stroke-width:0.5;stroke-linecap:round;stroke-linejoin:round;stroke:rgb(100%,17.647059%,37.254902%);stroke-opacity:1;stroke-miterlimit:4;" d="M 37.408067 14.818677 L 37.408067 10.047602 " transform="matrix(0.826923,0,0,0.826923,0,0)"/>
<path style="fill:none;stroke-width:0.5;stroke-linecap:butt;stroke-linejoin:miter;stroke:rgb(77.254902%,77.254902%,77.254902%);stroke-opacity:1;stroke-miterlimit:10;" d="M 11.554506 13.944767 L 29.609012 13.944767 L 29.609012 22.967297 C 29.609012 25.735465 27.790334 27.974564 25.546512 27.974564 L 24.55923 27.974564 C 22.296512 28.385538 22.390988 31.796148 22.390988 31.796148 L 18.304869 31.796148 C 18.304869 31.796148 18.399346 28.385538 16.136628 27.974564 L 15.62173 27.974564 C 13.377907 27.974564 11.554506 25.735465 11.554506 22.967297 Z M 11.554506 13.944767 " transform="matrix(0.826923,0,0,0.826923,0,0)"/>
<path style="fill:none;stroke-width:0.375;stroke-linecap:round;stroke-linejoin:round;stroke:rgb(88.627451%,12.54902%,18.823529%);stroke-opacity:1;stroke-miterlimit:4;" d="M 23.118459 22.268169 C 23.137355 22.617733 23.085392 22.962573 22.967297 23.288517 C 22.849201 23.614462 22.669695 23.912064 22.428779 24.162427 C 22.192587 24.412791 21.909157 24.615916 21.587936 24.752907 C 21.271439 24.889898 20.926599 24.960756 20.581759 24.960756 C 20.236919 24.960756 19.892078 24.889898 19.575581 24.752907 C 19.259084 24.615916 18.97093 24.412791 18.734738 24.162427 C 18.498547 23.90734 18.314317 23.609738 18.196221 23.283794 C 18.078125 22.957849 18.030887 22.613009 18.049782 22.268169 C 18.049782 22.268169 18.026163 20.454215 20.161337 17.180596 C 20.161337 17.180596 20.562863 16.500363 20.96439 17.133358 C 23.099564 20.411701 23.118459 22.268169 23.118459 22.268169 " transform="matrix(0.826923,0,0,0.826923,0,0)"/>
</g>
</svg>
