<?xml version="1.0" encoding="UTF-8"?>
<svg xmlns="http://www.w3.org/2000/svg" xmlns:xlink="http://www.w3.org/1999/xlink" width="43px" height="43px" viewBox="0 0 43 43" version="1.1">
<g id="surface1">
<path style=" stroke:none;fill-rule:evenodd;fill:rgb(100%,12.941176%,33.72549%);fill-opacity:1;" d="M 32.277344 24.78125 L 32.277344 4.792969 C 32.277344 4.792969 32.730469 0.140625 27.140625 0.140625 L 15.15625 0.140625 C 9.566406 0.140625 10.019531 4.792969 10.019531 4.792969 L 10.019531 24.78125 C 10.019531 24.78125 9.65625 29.480469 12.664062 29.480469 L 17.542969 29.480469 L 17.542969 32.027344 L 20.035156 32.027344 L 20.035156 37.625 L 17.542969 37.625 L 17.542969 40.3125 L 20.035156 40.3125 L 20.035156 42.777344 L 22.417969 42.777344 L 22.417969 40.3125 L 24.753906 40.3125 L 24.753906 37.625 L 22.417969 37.625 L 22.417969 32.027344 L 24.910156 32.027344 L 24.910156 29.480469 L 29.632812 29.480469 C 33.003906 29.480469 32.277344 24.78125 32.277344 24.78125 Z M 26.527344 27.324219 L 24.910156 27.324219 L 24.910156 26.875 L 17.539062 26.875 L 17.539062 27.324219 L 15.917969 27.324219 C 12.066406 27.324219 12.234375 23.679688 12.234375 23.679688 L 12.234375 13.3125 L 17.359375 13.3125 L 17.359375 10.890625 L 12.234375 10.890625 L 12.234375 7.9375 L 17.320312 7.9375 L 17.320312 5.515625 L 12.367188 5.515625 C 12.625 4.378906 13.421875 2.464844 15.914062 2.464844 L 26.527344 2.464844 C 29.890625 2.464844 30.210938 6.347656 30.210938 6.347656 L 30.210938 23.679688 C 30.214844 23.679688 30.511719 27.324219 26.527344 27.324219 Z M 26.527344 27.324219 "/>
<path style=" stroke:none;fill-rule:evenodd;fill:rgb(100%,0%,0%);fill-opacity:1;" d="M 15.003906 23 C 15.003906 24.871094 16.753906 25.167969 16.753906 25.167969 L 25.574219 25.167969 C 25.574219 25.167969 27.328125 25.097656 27.328125 23 L 27.328125 14.640625 L 15.003906 14.640625 Z M 15.003906 23 "/>
</g>
</svg>
