<svg width="28" height="27" viewBox="0 0 28 27" fill="none" xmlns="http://www.w3.org/2000/svg">
<path d="M2.79995 27H16.2677C17.0756 27.0004 17.874 26.8231 18.608 26.4801C19.342 26.1372 19.9941 25.6368 20.5195 25.0133L27.6622 16.549C27.8117 16.372 27.9162 16.1605 27.9663 15.9329C28.0164 15.7053 28.0106 15.4687 27.9495 15.2439C27.8883 15.0191 27.7737 14.813 27.6157 14.6438C27.4577 14.4746 27.2611 14.3475 27.0434 14.2736L24.2882 13.3407C23.6223 13.1209 22.9133 13.0711 22.224 13.1959C21.5347 13.3206 20.8862 13.6161 20.3361 14.056L15.8771 17.6781L15.0134 15.9218C14.5506 14.9751 13.8361 14.1789 12.9508 13.6235C12.0655 13.068 11.0448 12.7755 10.0042 12.779H2.79995C1.25578 12.779 0 14.0546 0 15.6232V24.1558C0 25.7244 1.25578 27 2.79995 27ZM2.79995 15.6232H10.0042C11.0724 15.6232 12.0314 16.2247 12.5088 17.1946L13.1346 18.4674H6.99989V21.3116H15.4194C15.6347 21.3087 15.8465 21.2552 16.0381 21.1552L16.0423 21.1537L16.0479 21.1509H16.0521L16.0549 21.1495H16.0605L16.0619 21.1481C16.0773 21.1523 16.0661 21.1466 16.0661 21.1466C16.0829 21.1466 16.0689 21.1452 16.0689 21.1452H16.0703L16.0731 21.1438L16.0773 21.1424L16.0801 21.1409L16.0829 21.1395L16.0871 21.1381L16.0899 21.1367L16.0927 21.1353L16.0969 21.1324L16.0997 21.131L16.1025 21.1296L16.1067 21.1281L16.1095 21.1267H16.1109L16.1137 21.1253H16.1151L16.1179 21.1239L16.1207 21.1225C16.1361 21.121 16.1249 21.121 16.1249 21.121L16.1277 21.1196C16.1817 21.0865 16.2332 21.0495 16.2817 21.0087L22.086 16.2916C22.4514 15.9958 22.9582 15.9034 23.402 16.0541L24.1818 16.3186L18.3957 23.1774C18.1295 23.4844 17.8022 23.7304 17.4353 23.8991C17.0684 24.0677 16.6704 24.1553 16.2677 24.1558H2.79995V15.6232ZM16.4651 0.443695C15.8197 1.16328 12.5998 4.89629 12.5998 7.80164C12.5998 10.5463 14.7978 12.779 17.4997 12.779C20.2017 12.779 22.3996 10.5463 22.3996 7.80164C22.3996 4.89629 19.1797 1.16328 18.5343 0.443695C18.0037 -0.147898 16.9957 -0.147898 16.4651 0.443695ZM19.5997 7.80164C19.5997 8.97772 18.6575 9.93479 17.4997 9.93479C16.3419 9.93479 15.3998 8.97772 15.3998 7.80164C15.3998 6.7948 16.4329 5.0513 17.4997 3.6292C18.5665 5.0513 19.5997 6.7948 19.5997 7.80164Z" fill="#E22030"/>
</svg>
