<svg width="26" height="22" viewBox="0 0 26 22" fill="none" xmlns="http://www.w3.org/2000/svg">
<path d="M24.308 21.5581H24.2835C24.087 21.5581 23.9275 21.4926 23.8047 21.3617C23.6819 21.2307 23.6123 21.0588 23.596 20.846C23.5796 20.6169 23.5264 20.3181 23.4364 19.9498C23.3463 19.5815 23.0599 18.9882 22.577 18.1697C22.0941 17.3513 21.468 16.6228 20.6987 15.9844C19.9293 15.346 18.763 14.7731 17.1998 14.2657C15.6365 13.7582 13.8237 13.5045 11.7612 13.5045V18.0224C11.7612 18.1042 11.7489 18.1779 11.7243 18.2434C11.6998 18.3088 11.6711 18.3743 11.6384 18.4398C11.6057 18.5053 11.5606 18.5626 11.5033 18.6117C11.4461 18.6608 11.3847 18.7017 11.3192 18.7344C11.0082 18.8818 10.7299 18.849 10.4844 18.6362L0.294643 10.1898C0.196429 10.1079 0.122768 10.0138 0.0736607 9.90743C0.0245536 9.80103 0 9.69054 0 9.57595C0 9.33042 0.0982143 9.12581 0.294643 8.96212L10.4844 0.613901C10.7299 0.401103 11.0041 0.364273 11.3069 0.50341C11.6097 0.642547 11.7612 0.88399 11.7612 1.22774V5.62283C12.4159 5.65557 13.0461 5.70877 13.6518 5.78243C14.2574 5.85609 14.8467 5.9543 15.4196 6.07707C15.9926 6.19984 16.5409 6.35125 17.0647 6.53131C17.5885 6.71137 18.0878 6.92008 18.5625 7.15743C19.0372 7.39478 19.4873 7.65259 19.9129 7.93087C20.3385 8.20914 20.7396 8.51606 21.1161 8.85162C21.4926 9.18719 21.8445 9.54322 22.1719 9.9197C22.8757 10.7382 23.4527 11.6753 23.9029 12.7311C24.353 13.7869 24.66 14.7404 24.8237 15.5916C24.9873 16.4428 25.0856 17.3103 25.1183 18.1943C25.151 19.0782 25.1551 19.7002 25.1306 20.0603C25.106 20.4204 25.0774 20.6987 25.0446 20.8952C25.0119 21.0916 24.9301 21.2512 24.7991 21.3739C24.6681 21.4967 24.5045 21.5581 24.308 21.5581ZM10.9754 11.9331C12.2522 11.9331 13.4308 11.9986 14.5112 12.1295C15.5915 12.2605 16.5409 12.4528 17.3594 12.7065C18.1778 12.9603 18.9103 13.2385 19.5569 13.5414C20.2035 13.8442 20.7805 14.1961 21.2879 14.5972C21.7954 14.9982 22.221 15.3788 22.5647 15.7389C22.9085 16.099 23.2359 16.5001 23.5469 16.942C23.2359 14.5685 22.3765 12.5715 20.9687 10.951C18.8244 8.44649 15.4933 7.19426 10.9754 7.19426C10.7626 7.19426 10.5785 7.11651 10.423 6.961C10.2675 6.80549 10.1897 6.62134 10.1897 6.40854V2.87283L2.01339 9.57595L10.1897 16.3527V12.7188C10.1897 12.506 10.2634 12.3178 10.4107 12.1541C10.4598 12.105 10.5171 12.064 10.5826 12.0313C10.6481 11.9986 10.7135 11.974 10.779 11.9577C10.8445 11.9413 10.91 11.9331 10.9754 11.9331Z" fill="white"/>
</svg>
